PathFileType	4	(X/Y/Z)	9_1_52_p1_0-172.trc
DataRate	CameraRate	NumFrames	NumMarkers	Units	OrigDataRate	OrigDataStartFrame	OrigNumFrames
59.0	59.0	7	27	m	59.0	43	173
Frame#	Time	RHip			RKnee			RAnkle			RBigToe			RSmallToe			RHeel			LHip			LKnee			LAnkle			LBigToe			LSmallToe			LHeel			Neck			Head			Nose			RShoulder			RElbow			RWrist			RThumb			RIndex			RPinky			LShoulder			LElbow			LWrist			LThumb			LIndex			LPinky			
		X1	Y1	Z1	X2	Y2	Z2	X3	Y3	Z3	X4	Y4	Z4	X5	Y5	Z5	X6	Y6	Z6	X7	Y7	Z7	X8	Y8	Z8	X9	Y9	Z9	X10	Y10	Z10	X11	Y11	Z11	X12	Y12	Z12	X13	Y13	Z13	X14	Y14	Z14	X15	Y15	Z15	X16	Y16	Z16	X17	Y17	Z17	X18	Y18	Z18	X19	Y19	Z19	X20	Y20	Z20	X21	Y21	Z21	X22	Y22	Z22	X23	Y23	Z23	X24	Y24	Z24	X25	Y25	Z25	X26	Y26	Z26	X27	Y27	Z27	
43	0.7288135593220338	0.30437259204266026	0.5095556087274815	1.1745562214729535	0.29585584101598483	0.5226243138804628	1.5316737615636993	0.2823011594727817	0.647778943994405	1.936036529677976	0.284929042730516	0.4195233889158354	1.896361971866266	0.3368199347559745	0.4405609077235396	1.894395467574751	0.27377138157890407	0.7053558087736979	1.9954121559115052	0.0818105537948739	0.4928392590351107	1.1800484547567263	0.10879626187350168	0.5314688266497721	1.5304380542705354	0.08244266943221146	0.583060382709334	1.9140124454296112	0.10977313498285188	0.37191408509227886	1.8731833422679984	0.05252502806376312	0.42551025262064035	1.8802329606414927	0.07546507654449484	0.6376208839931491	1.9694798852599589	0.20615255325659138	0.43989176805025837	0.604927431044076	0.22561762022516885	0.354711242251364	0.34293173626464996	0.2249404250256801	0.3281690458535696	0.492513903607655	0.3769873161141845	0.4406220572534474	0.6977914340495875	0.44537907542345684	0.4311708985136763	0.907178522791241	0.3381024063830004	0.3073405642889936	1.0617045487767212	0.20416730701196692	0.2713083232898447	1.0715828836158674	0.1955930714633389	0.2748211362888826	1.1028297017506108	0.22213119466217285	0.30484985831761235	1.1493908412056846	0.040724113990365615	0.4006961902082186	0.6905164004507827	-0.029524727890067395	0.4441132800515589	0.9340020100185153	0.08944590838166598	0.3083681145904425	1.0345613569571874	0.18984363144173952	0.2878638986281141	1.0431692800123853	0.18978386102519554	0.29603787182480845	1.1014019440303198	0.1855280310420626	0.3118254222879908	1.1304311620215335
44	0.7457627118644068	0.30956787535996516	0.49268932542950034	1.1771594934938896	0.29582894336603605	0.5226235873011597	1.5316250169341115	0.2823344380117685	0.6477424164815405	1.9360935614974708	0.2849025289499391	0.4194016853739183	1.896211925141525	0.33668568654796477	0.43998070274763557	1.8940479081418047	0.2740165648110446	0.7055799767687659	1.9954722651637555	0.0818225626425962	0.48984023771208135	1.1793661200121	0.11178316674745269	0.5444019685479543	1.5354045963864666	0.08246748931236796	0.5829555005405458	1.91401153738044	0.1087647413625956	0.3725743800466333	1.8775462914880288	0.052654631640848125	0.42534890801820086	1.8803032230284744	0.07548980814304834	0.6374557238619435	1.9694701176272627	0.20620092709023588	0.4398927827330739	0.6049724128431708	0.22563364728419583	0.35480582341357353	0.3429950453938117	0.2248944540692907	0.3281465110935408	0.4925095830646145	0.37323734807824993	0.4386974317385156	0.6976626357423369	0.4455779963188365	0.4467840971338275	0.9138092250734253	0.33303751376778834	0.3203449492734552	1.0576704870759053	0.20438736299755092	0.2732497724177324	1.0654358714576242	0.19767512725759823	0.286780522683704	1.105372239512269	0.21321517056781444	0.30271456581774325	1.1378562611069452	0.042691156311899084	0.4120642671122661	0.6919515019165307	-0.028673494580520563	0.4428283360869997	0.9340314987480356	0.08943679066965839	0.30851197184107365	1.0345206347255185	0.190565297733335	0.28992700200891863	1.0433933789972263	0.19374200044258685	0.2846687203060409	1.0974801164230443	0.1852163470241794	0.3122780465826154	1.1269331625678911
45	0.7627118644067796	0.3056457520346914	0.5082699937532525	1.18652737214977	0.29578131822793635	0.5224083078630541	1.5315770119917471	0.2823124470374958	0.6477408201395566	1.9360463926379066	0.2849204740880563	0.41927268782756816	1.8964083812072783	0.33343679304952056	0.4280010698982092	1.8879929900005734	0.27390326222207284	0.7051953387721182	1.995230021413779	0.08239840789587	0.49224210478171593	1.184213285524337	0.10886907622844265	0.5438702247258334	1.5398061530147686	0.08253474873492071	0.5828860150385943	1.9139586469223187	0.11365702603553487	0.35911771475657445	1.8698555959822398	0.05814251502038119	0.4117272706010459	1.8725219818759296	0.07991141576014166	0.6417573593154179	1.9716417647431148	0.20621832790498343	0.4398693261840039	0.6050066337711585	0.22564859266426143	0.3546929787016468	0.3429505244143443	0.22489388916277578	0.3281640376129248	0.4925510376021263	0.3732609236052383	0.43878107225850543	0.697727456233927	0.4456519153213719	0.44702048064490996	0.9138845285817757	0.33544420635324323	0.3344957669672585	1.0532605155201977	0.19767580138816485	0.2827044114157637	1.0579790837429082	0.19715511424187007	0.28784355380874543	1.1053247024167754	0.20308563909643382	0.31441314342103877	1.1301866453410396	0.040729847465762366	0.4007100765738994	0.6904564698704846	-0.029103186156077335	0.4438293289132623	0.9300714775503733	0.08939515370804803	0.30871532500194887	1.0343690344514018	0.18959855934720724	0.28788995596485467	1.0342961874213743	0.18921863843813788	0.29688304256766024	1.0972180585379796	0.18447250695110265	0.311376966867384	1.1221410997845056
46	0.7796610169491526	0.30557576361899286	0.5118541334345845	1.1923345421098137	0.29574903872177194	0.522325949133596	1.5316068223157595	0.28217638962016584	0.6472622914022725	1.9359231063687337	0.28479141265496044	0.42026720708116316	1.8960334243411427	0.3362835738375063	0.43949742367188477	1.893556251936362	0.27373304424271233	0.7047938486418895	1.9950629842233076	0.0859568471640994	0.4987513059587865	1.1903882633590346	0.10967162935018761	0.5460462278697332	1.5454650926987223	0.08244893502572903	0.5832024972319454	1.9140330493079243	0.10950422051477396	0.37527671330845314	1.882919688091505	0.05250814539623658	0.4254934553925564	1.8800014233354492	0.07544770585106904	0.6377799326073982	1.9694782263653199	0.20625394244219256	0.43990536424949617	0.6050831969069908	0.2256640709301872	0.3544789375163235	0.3429415493951557	0.2249062545820937	0.3281181186834731	0.49257350826544344	0.3730823848397435	0.4385801918757989	0.697565179401359	0.4497649209669805	0.432767207914923	0.9068803427285853	0.33049957293223375	0.32220961042277646	1.0389071196769903	0.19583076768949675	0.279774622329098	1.0209519620770884	0.18764599288517908	0.2979747505817176	1.096965206825077	0.19767120660020807	0.3137761815655807	1.1219030227917972	0.04285421040523167	0.4122575842820054	0.6918083880672291	-0.02909901841996325	0.4434463914297836	0.9300458969776096	0.0887214953997029	0.3079478333114313	1.0262419204900914	0.18776151149047324	0.2904254190257847	1.0212246328438512	0.19087683965558416	0.30254544965046193	1.0877359319992943	0.17959894338771415	0.32481781231683093	1.118433288481623
47	0.7966101694915254	0.3019893914708842	0.49952843388504337	1.1889403294735081	0.2957078602219143	0.5218864965343334	1.5315437731549948	0.2776231101314839	0.6448445250670439	1.935013537154565	0.2814476211972814	0.4070689203744114	1.8893767542984485	0.32855743619769423	0.4248610377815754	1.8862465173774732	0.2739948455085919	0.7057645775270208	1.9955737030257188	0.08681888756946922	0.49828872498472593	1.1868161345106283	0.10638651021729836	0.529804751700483	1.5382023082561334	0.08244700555953485	0.5831962216286986	1.9141406629281557	0.10880884139327311	0.3731217344724976	1.8773862922367803	0.05253683319777526	0.4254248330681709	1.879913900270793	0.07549822921134727	0.6378225719902818	1.9698007292906166	0.2062017380973529	0.4399770954592296	0.6050038192671934	0.22566826077004337	0.3545192904332367	0.3429114820646325	0.22496980253947227	0.3280882513718677	0.49258710671296785	0.3730928452976969	0.43856119628578044	0.6975570641320114	0.449912841806713	0.43294385724389256	0.9063681716004549	0.32544759905427006	0.31961762554841583	1.0303268902624363	0.195426483813453	0.2812848624764938	1.028669220978474	0.18540597696702338	0.2868375318530215	1.0937758685969103	0.19768826865195466	0.31530860233909225	1.1150290416670237	0.04280826183559406	0.41216100669794936	0.6917552890992007	-0.029456760647966745	0.4446858601058518	0.9259733137572709	0.08883858813453582	0.3081512426057434	1.0261117058389062	0.18798277676431713	0.2900659015583382	1.021287561486702	0.19161133575847472	0.3022502486950583	1.0833973066563514	0.18713960611867647	0.323141225569094	1.116934727565225
48	0.8135593220338984	0.3048365049897828	0.510011089597165	1.1875804852113876	0.29568530893813	0.5214394082219601	1.531447145355374	0.2861607793179629	0.628363674213811	1.9210530726656467	0.28486683666178364	0.42042951889940877	1.8960847731343256	0.3321716675982265	0.4382040586617254	1.8932682495910171	0.27248249805724445	0.7018820022730058	1.9887940010164682	0.09094793239614075	0.4822221859243213	1.1850133955773576	0.10925740501057599	0.5425213868212726	1.5431000220295805	0.08241795473972534	0.5831470750377097	1.9142256425077049	0.10928525206884993	0.3751460834738586	1.8830160140048986	0.05233278326881807	0.4258944367309133	1.880812406993654	0.07997989201979884	0.6417810035532914	1.9716714655800112	0.20617980909990377	0.43995736572258654	0.6049455263588277	0.22572965098863898	0.35459533184262026	0.3429399074414758	0.22785147517994725	0.33844421878255837	0.493293792064918	0.3731727817048797	0.4393449253720515	0.6903153965573655	0.4499884472711719	0.43300909742306476	0.9061620762797729	0.32453086991162716	0.3168282626556996	1.0140250112523503	0.19554234958918	0.28237654336350054	1.0173793177856518	0.18630112095171308	0.28729366077708174	1.0832998755185799	0.19701680894346316	0.31295208983802025	1.1064568375665527	0.042887455204232185	0.4123158673012894	0.6918186243549393	-0.029571180518947283	0.4445831500885831	0.9258327311988532	0.09443047141373237	0.29538716471158855	1.0190196791576505	0.18820901644844049	0.28969678172813873	1.0139405711977945	0.19884928339614763	0.2825034728187581	1.0657814432692634	0.18733217778530364	0.3236166974830871	1.1165211691971761
49	0.8305084745762712	0.3091052993204518	0.5129101943054164	1.179739449901119	0.29252935242053996	0.5072122090257487	1.5299692000592773	0.2872199074824912	0.6305728083243755	1.9267529785423259	0.28476288364467284	0.4201901148568418	1.8961302614876276	0.3240392744180183	0.4398186184437548	1.8947797444269472	0.27404988411271375	0.7049487436194443	1.9949620206532586	0.08533269929625074	0.49437800085833944	1.1767888021298332	0.10631076341488706	0.5295735000466154	1.5380926866804963	0.08231188049241461	0.5829420228979395	1.914195060868849	0.10706550059409031	0.36326939686963344	1.8765020860106902	0.05224922280489769	0.42582745848401304	1.8807087825377908	0.07545608357515611	0.6375022255975977	1.9694250678158205	0.2108016874297722	0.42680465440503	0.6034781246029067	0.22577586265543995	0.35463252107115745	0.34294271583689523	0.22508754493003716	0.32809853633233776	0.4927368300783935	0.37315926211601314	0.43925760747680437	0.6902745290263504	0.4497525066940889	0.4339132173611524	0.9024143585294069	0.32421239761144316	0.3159189239332105	1.0128833792884075	0.19567925635311045	0.28098061935071766	1.009417851648127	0.1891091549409503	0.2964559913715988	1.070801674908089	0.19752746628714848	0.3129991878221783	1.0957092285222858	0.043036981185493095	0.41266782800327756	0.6915724431348619	-0.03658485244705759	0.44293957584788973	0.917898588386954	0.09442804870424584	0.2951585641744197	1.0185999272115593	0.1876456342154295	0.28887364128157633	1.0090982639787687	0.1971261683526422	0.27893779803048346	1.0488154088744504	0.19529655736276935	0.31209672467420513	1.1014034810425002
